HIERARCHY
ROOT hip
{
  OFFSET 0.0 0.0 0.0
  CHANNELS 6 Xposition Yposition Zposition Zrotation Yrotation Xrotation
  JOINT abdomen
  {
    OFFSET 0.0 20.6881 -0.73152
    CHANNELS 3 Zrotation Xrotation Yrotation
    JOINT chest
    {
      OFFSET 0.0 11.7043 -0.48768
      CHANNELS 3 Zrotation Xrotation Yrotation
      JOINT neck
      {
        OFFSET 0.0 22.1894 -2.19456
        CHANNELS 3 Zrotation Xrotation Yrotation
        JOINT head
        {
          OFFSET -0.24384 7.07133 1.2192
          CHANNELS 3 Zrotation Xrotation Yrotation
          JOINT leftEye
          {
            OFFSET 4.14528 8.04674 8.04672
            CHANNELS 3 Zrotation Xrotation Yrotation
            End Site
            {
              OFFSET 1.0 0.0 0.0
            }
          }
          JOINT rightEye
          {
            OFFSET -3.6576 8.04674 8.04672
            CHANNELS 3 Zrotation Xrotation Yrotation
            End Site
            {
              OFFSET 1.0 0.0 0.0
            }
          }
        }
      }
      JOINT rCollar
      {
        OFFSET -2.68224 19.2634 -4.8768
        CHANNELS 3 Zrotation Xrotation Yrotation
        JOINT rShldr
        {
          OFFSET -8.77824 -1.95073 1.46304
          CHANNELS 3 Zrotation Xrotation Yrotation
          JOINT rForeArm
          {
            OFFSET -28.1742 -1.7115 0.48768
            CHANNELS 3 Zrotation Xrotation Yrotation
            JOINT rHand
            {
              OFFSET -22.5879 0.773209 7.07136
              CHANNELS 3 Zrotation Xrotation Yrotation
              JOINT rThumb1
              {
                OFFSET -1.2192 -0.487915 3.41376
                CHANNELS 3 Zrotation Xrotation Yrotation
                JOINT rThumb2
                {
                  OFFSET -3.37035 -0.52449 3.41376
                  CHANNELS 3 Zrotation Xrotation Yrotation
                  End Site
                  {
                    OFFSET -1.78271 -1.18214 1.43049
                  }
                }
              }
              JOINT rIndex1
              {
                OFFSET -7.75947 0.938293 5.60832
                CHANNELS 3 Zrotation Xrotation Yrotation
                JOINT rIndex2
                {
                  OFFSET -2.54057 -0.884171 1.56538
                  CHANNELS 3 Zrotation Xrotation Yrotation
                  End Site
                  {
                    OFFSET -1.62519 -0.234802 1.16502
                  }
                }
              }
              JOINT rMid1
              {
                OFFSET -8.24714 1.18213 3.41376
                CHANNELS 3 Zrotation Xrotation Yrotation
                JOINT rMid2
                {
                  OFFSET -3.10165 -0.590103 1.0647
                  CHANNELS 3 Zrotation Xrotation Yrotation
                  End Site
                  {
                    OFFSET -2.48547 -0.328903 0.83742
                  }
                }
              }
              JOINT rRing1
              {
                OFFSET -8.82822 0.546677 1.51678
                CHANNELS 3 Zrotation Xrotation Yrotation
                JOINT rRing2
                {
                  OFFSET -2.60934 -0.819778 -0.0198488
                  CHANNELS 3 Zrotation Xrotation Yrotation
                  End Site
                  {
                    OFFSET -2.33842 -0.294052 0.168128
                  }
                }
              }
              JOINT rPinky1
              {
                OFFSET -8.27202 -0.0477905 -0.4584
                CHANNELS 3 Zrotation Xrotation Yrotation
                JOINT rPinky2
                {
                  OFFSET -1.82734 -0.647385 -0.700984
                  CHANNELS 3 Zrotation Xrotation Yrotation
                  End Site
                  {
                    OFFSET -1.69225 -0.51767 -0.607171
                  }
                }
              }
            }
          }
        }
      }
      JOINT lCollar
      {
        OFFSET 2.68224 19.2634 -4.8768
        CHANNELS 3 Zrotation Xrotation Yrotation
        JOINT lShldr
        {
          OFFSET 8.77824 -1.95073 1.46304
          CHANNELS 3 Zrotation Xrotation Yrotation
          JOINT lForeArm
          {
            OFFSET 28.1742 -1.7115 0.48768
            CHANNELS 3 Zrotation Xrotation Yrotation
            JOINT lHand
            {
              OFFSET 22.5879 0.773209 7.07136
              CHANNELS 3 Zrotation Xrotation Yrotation
              JOINT lThumb1
              {
                OFFSET 1.2192 -0.487915 3.41376
                CHANNELS 3 Zrotation Xrotation Yrotation
                JOINT lThumb2
                {
                  OFFSET 3.37035 -0.52449 3.41376
                  CHANNELS 3 Zrotation Xrotation Yrotation
                  End Site
                  {
                    OFFSET 1.78271 -1.18214 1.43049
                  }
                }
              }
              JOINT lIndex1
              {
                OFFSET 7.75947 0.938293 5.60832
                CHANNELS 3 Zrotation Xrotation Yrotation
                JOINT lIndex2
                {
                  OFFSET 2.54057 -0.884171 1.56538
                  CHANNELS 3 Zrotation Xrotation Yrotation
                  End Site
                  {
                    OFFSET 1.62519 -0.234802 1.16502
                  }
                }
              }
              JOINT lMid1
              {
                OFFSET 8.24714 1.18213 3.41376
                CHANNELS 3 Zrotation Xrotation Yrotation
                JOINT lMid2
                {
                  OFFSET 3.10165 -0.590103 1.0647
                  CHANNELS 3 Zrotation Xrotation Yrotation
                  End Site
                  {
                    OFFSET 2.48547 -0.328903 0.83742
                  }
                }
              }
              JOINT lRing1
              {
                OFFSET 8.82822 0.546677 1.51678
                CHANNELS 3 Zrotation Xrotation Yrotation
                JOINT lRing2
                {
                  OFFSET 2.60934 -0.819778 -0.0198488
                  CHANNELS 3 Zrotation Xrotation Yrotation
                  End Site
                  {
                    OFFSET 2.33842 -0.294052 0.168128
                  }
                }
              }
              JOINT lPinky1
              {
                OFFSET 8.27202 -0.0477905 -0.4584
                CHANNELS 3 Zrotation Xrotation Yrotation
                JOINT lPinky2
                {
                  OFFSET 1.82734 -0.647385 -0.700984
                  CHANNELS 3 Zrotation Xrotation Yrotation
                  End Site
                  {
                    OFFSET 1.69225 -0.51767 -0.607171
                  }
                }
              }
            }
          }
        }
      }
    }
  }
  JOINT rButtock
  {
    OFFSET -8.77824 4.35084 1.2192
    CHANNELS 3 Zrotation Xrotation Yrotation
    JOINT rThigh
    {
      OFFSET 0.0 -1.70687 -2.19456
      CHANNELS 3 Zrotation Xrotation Yrotation
      JOINT rShin
      {
        OFFSET 0.0 -36.8199 0.73152
        CHANNELS 3 Zrotation Xrotation Yrotation
        JOINT rFoot
        {
          OFFSET 0.73152 -45.1104 -5.12064
          CHANNELS 3 Zrotation Xrotation Yrotation
          End Site
          {
            OFFSET -1.1221 -3.69964 12.103
          }
        }
      }
    }
  }
  JOINT lButtock
  {
    OFFSET 8.77824 4.35084 1.2192
    CHANNELS 3 Zrotation Xrotation Yrotation
    JOINT lThigh
    {
      OFFSET 0.0 -1.70687 -2.19456
      CHANNELS 3 Zrotation Xrotation Yrotation
      JOINT lShin
      {
        OFFSET 0.0 -36.8199 0.73152
        CHANNELS 3 Zrotation Xrotation Yrotation
        JOINT lFoot
        {
          OFFSET -0.73152 -45.1104 -5.12064
          CHANNELS 3 Zrotation Xrotation Yrotation
          End Site
          {
            OFFSET 1.1221 -3.69964 12.103
          }
        }
      }
    }
  }
}
MOTION
Frames: 4
Frame Time: 0.00833333
0.0 81.9038 0.0 4.2322 5.6247 6.781 -3.18983 3.04994 -5.55458 5.93594 -5.12633 -1.36766 9.65805 -7.89579 3.59977 -12.1199 -13.0857 1.80702 -0.0 0.0 0.0 -0.0 0.0 0.0 3.22233e-13 5.96362e-14 -9.44227e-14 75.0006 26.4231 -0.321398 -15.1289 -7.90242 27.8544 -0.157938 -11.2553 -1.60271 -3.03607e-09 2.89906e-09 -8.74058e-10 -5.23919e-09 5.0042e-09 -1.53348e-09 -3.03606e-09 2.89906e-09 -8.7408e-10 7.73091 5.47488 0.417314 -3.03606e-09 2.89905e-09 -8.74064e-10 2.90554 0.965183 0.102902 -3.03606e-09 2.89905e-09 -8.7406e-10 10.2786 0.731801 0.0259123 -3.03607e-09 2.89906e-09 -8.74058e-10 2.22167 -0.733487 -0.20892 3.22049e-13 5.96337e-14 -9.47209e-14 -83.5063 31.0946 1.78839 13.7656 -6.76685 -25.0837 0.0395591 -5.66762 0.799166 -2.97665e-09 -1.57368e-09 -5.92146e-10 -5.13798e-09 -2.71558e-09 -1.03286e-09 -2.97666e-09 -1.57368e-09 -5.92133e-10 -7.73091 5.47488 -0.417314 -2.97666e-09 -1.57368e-09 -5.92149e-10 -2.90554 0.965183 -0.102902 -2.97666e-09 -1.57368e-09 -5.9214e-10 -10.2786 0.731801 -0.0259123 -2.97665e-09 -1.57368e-09 -5.9214e-10 -2.22167 -0.733487 0.20892 -2.03217e-16 0.0 -3.88251e-19 -9.78007 -41.8167 -7.3037 -0.499357 46.6633 0.893217 -2.28637 0.63477 -15.3958 2.03217e-16 0.0 3.88251e-19 -0.835035 11.8212 -4.20606 -0.0138314 18.3068 -0.571122 0.126222 8.02308 4.22235
-0.08591000000000015 82.7802 0.991100000000003 4.0955 6.0995 6.8773 -2.77363 2.68362 -5.78073 5.83922 -5.11535 -1.43205 9.71553 -8.02938 3.59416 -12.1393 -13.0795 1.74829 -0.0 0.0 0.0 -0.0 0.0 0.0 2.96442e-13 1.4953e-13 -8.78566e-14 75.2901 26.3656 -0.925306 -15.0358 -7.82136 27.6623 -0.155668 -11.1753 -1.59101 -2.976e-09 3.43842e-09 -1.30167e-09 -5.13432e-09 5.93591e-09 -2.27202e-09 -2.976e-09 3.43842e-09 -1.30169e-09 7.73091 5.47488 0.417314 -2.976e-09 3.43842e-09 -1.30168e-09 2.90554 0.965183 0.102902 -2.976e-09 3.43842e-09 -1.30168e-09 10.2786 0.731801 0.0259123 -2.97601e-09 3.43842e-09 -1.30167e-09 2.22167 -0.733487 -0.20892 2.96256e-13 1.49528e-13 -8.81505e-14 -83.7862 31.2604 2.06284 13.4385 -6.5127 -24.4268 0.030534 -5.03605 0.709516 -3.30709e-09 -1.36932e-09 1.17778e-10 -5.71005e-09 -2.36355e-09 1.9535e-10 -3.3071e-09 -1.36932e-09 1.17792e-10 -7.73091 5.47488 -0.417314 -3.3071e-09 -1.36933e-09 1.17779e-10 -2.90554 0.965183 -0.102902 -3.3071e-09 -1.36933e-09 1.17786e-10 -10.2786 0.731801 -0.0259123 -3.30709e-09 -1.36932e-09 1.17785e-10 -2.22167 -0.733487 0.20892 -2.03217e-16 0.0 -3.88251e-19 -9.47803 -40.0873 -7.41935 -0.454766 44.9632 0.819956 -2.01753 1.27832 -15.0272 2.03217e-16 0.0 3.88251e-19 -0.27567 10.7999 -4.48779 -0.0015148 19.1743 -0.538879 0.11151 11.2797 2.66682
-0.16554000000000002 83.6954 1.9607000000000028 3.9474 6.6075 6.9481 -2.34855 2.32679 -6.01784 5.73427 -5.11593 -1.49907 9.7374 -8.17945 3.55233 -12.1387 -12.9889 1.63955 -0.0 0.0 0.0 -0.0 0.0 0.0 2.05619e-13 2.76012e-13 -7.38174e-14 75.6115 26.1805 -1.59176 -14.9429 -7.74106 27.4711 -0.149313 -10.9492 -1.55801 -2.44373e-09 3.72319e-09 -1.80505e-09 -4.21398e-09 6.42789e-09 -3.138e-09 -2.44372e-09 3.72319e-09 -1.80506e-09 7.73091 5.47488 0.417314 -2.44373e-09 3.72319e-09 -1.80506e-09 2.90554 0.965183 0.102902 -2.44372e-09 3.72319e-09 -1.80505e-09 10.2786 0.731801 0.0259123 -2.44373e-09 3.72319e-09 -1.80504e-09 2.22167 -0.733487 -0.20892 2.0545e-13 2.76012e-13 -7.40939e-14 -84.0103 31.4625 2.28265 13.0799 -6.23992 -23.7124 0.0219217 -4.23367 0.595974 -3.33622e-09 -7.97898e-10 1.16696e-09 -5.76243e-09 -1.37778e-09 2.01168e-09 -3.33623e-09 -7.97902e-10 1.16697e-09 -7.73091 5.47488 -0.417314 -3.33623e-09 -7.97907e-10 1.16696e-09 -2.90554 0.965183 -0.102902 -3.33623e-09 -7.97904e-10 1.16696e-09 -10.2786 0.731801 -0.0259123 -3.33622e-09 -7.97902e-10 1.16696e-09 -2.22167 -0.733487 0.20892 -2.03217e-16 0.0 -3.88251e-19 -9.15785 -38.2808 -7.44997 -0.41263 43.1138 0.741428 -1.68744 2.16469 -14.6297 2.03217e-16 0.0 3.88251e-19 0.270283 9.6514 -4.86727 0.013098 20.0482 -0.507524 0.253601 14.6677 1.11946
-0.23831000000000024 84.631 2.9091000000000093 3.7879 7.1228 6.9925 -1.92642 1.99766 -6.22378 5.62071 -5.11545 -1.55757 9.73731 -8.34281 3.49109 -12.1428 -12.8596 1.50233 -0.0 0.0 0.0 -0.0 0.0 0.0 9.98924e-14 3.84255e-13 -5.7719e-14 75.9227 25.9197 -2.24656 -14.852 -7.66292 27.2844 -0.141261 -10.6535 -1.51492 -1.74388e-09 3.72803e-09 -2.18423e-09 -3.00467e-09 6.43646e-09 -3.78807e-09 -1.74387e-09 3.72804e-09 -2.18424e-09 7.73091 5.47488 0.417314 -1.74388e-09 3.72804e-09 -2.18424e-09 2.90554 0.965183 0.102902 -1.74387e-09 3.72804e-09 -2.18423e-09 10.2786 0.731801 0.0259123 -1.74389e-09 3.72804e-09 -2.18422e-09 2.22167 -0.733487 -0.20892 9.97444e-14 3.84258e-13 -5.79764e-14 -84.1936 31.6441 2.4815 12.7371 -5.98275 -23.0395 0.0140307 -3.30937 0.465549 -3.12099e-09 -1.53985e-10 2.11499e-09 -5.39266e-09 -2.66728e-10 3.65345e-09 -3.121e-09 -1.53989e-10 2.11501e-09 -7.73091 5.47488 -0.417314 -3.121e-09 -1.53994e-10 2.115e-09 -2.90554 0.965183 -0.102902 -3.12101e-09 -1.53993e-10 2.115e-09 -10.2786 0.731801 -0.0259123 -3.12099e-09 -1.53992e-10 2.115e-09 -2.22167 -0.733487 0.20892 -2.03217e-16 0.0 -3.88251e-19 -8.82678 -36.5329 -7.40559 -0.376194 41.2724 0.664138 -1.30498 3.3088 -14.2183 2.03217e-16 0.0 3.88251e-19 0.76148 8.44264 -5.24105 0.0286653 20.9504 -0.480093 0.51253 17.6308 -0.209535
